<svg width="25" height="27" viewBox="0 0 25 27" fill="none" xmlns="http://www.w3.org/2000/svg">
<path d="M23.0515 18.722H3.63971C2.91176 18.722 2.42647 18.2063 2.42647 17.4326C2.42647 16.659 2.91176 16.1433 3.63971 16.1433H19.4118C19.8971 16.1433 20.3824 15.8854 20.5037 15.3696L24.1434 6.34382C24.2647 5.957 24.2647 5.44125 24.0221 5.18337C23.7794 4.79655 23.4154 4.53867 23.0515 4.53867H5.33824L4.85294 1.70199C4.73162 1.05729 4.24632 0.670471 3.63971 0.670471H1.21324C0.485294 0.670471 0 1.18623 0 1.95987C0 2.73351 0.485294 3.24927 1.21324 3.24927H2.66912L4.61029 13.5645H3.63971C1.57721 13.5645 0 15.2407 0 17.4326C0 19.2378 1.09191 20.6561 2.66912 21.1719C2.54779 21.5587 2.42647 22.0745 2.42647 22.5902C2.42647 24.7822 4.00368 26.4584 6.06618 26.4584C8.12868 26.4584 9.70588 24.7822 9.70588 22.5902C9.70588 22.0745 9.58456 21.6877 9.46323 21.3008H14.8015C14.6801 21.6877 14.5588 22.0745 14.5588 22.5902C14.5588 24.7822 16.136 26.4584 18.1985 26.4584C20.261 26.4584 21.8382 24.7822 21.8382 22.5902C21.8382 22.0745 21.7169 21.6877 21.5956 21.3008H23.0515C23.7794 21.3008 24.2647 20.7851 24.2647 20.0114C24.2647 19.2378 23.7794 18.722 23.0515 18.722ZM5.82353 7.11746H21.2316L18.6838 13.5645H7.03676L5.82353 7.11746ZM7.27941 22.5902C7.27941 23.3639 6.79412 23.8796 6.06618 23.8796C5.33823 23.8796 4.85294 23.3639 4.85294 22.5902C4.85294 21.8166 5.33823 21.3008 6.06618 21.3008C6.79412 21.3008 7.27941 21.8166 7.27941 22.5902ZM19.4118 22.5902C19.4118 23.3639 18.9265 23.8796 18.1985 23.8796C17.4706 23.8796 16.9853 23.3639 16.9853 22.5902C16.9853 21.8166 17.4706 21.3008 18.1985 21.3008C18.9265 21.3008 19.4118 21.8166 19.4118 22.5902Z" fill="white"/>
</svg>
