<svg width="21" height="21" viewBox="0 0 21 21" fill="none" xmlns="http://www.w3.org/2000/svg">
<path fill-rule="evenodd" clip-rule="evenodd" d="M17.0625 0H3.9375C2.89321 0 1.89169 0.414843 1.15327 1.15327C0.414843 1.89169 0 2.89321 0 3.9375V17.0625C0 18.1068 0.414843 19.1083 1.15327 19.8467C1.89169 20.5852 2.89321 21 3.9375 21H17.0625C18.1068 21 19.1083 20.5852 19.8467 19.8467C20.5852 19.1083 21 18.1068 21 17.0625V3.9375C21 2.89321 20.5852 1.89169 19.8467 1.15327C19.1083 0.414843 18.1068 0 17.0625 0ZM16.5293 11.3097H14.5647V18.5827H11.2817V11.3097H10.0077V8.85967H11.2817V7.29633C11.2817 5.25117 12.1333 4.0355 14.5425 4.0355H16.9855V6.47617H15.5633C14.6242 6.47617 14.5635 6.82617 14.5635 7.4795L14.5612 8.855H16.793L16.5247 11.305L16.5293 11.3097Z" fill="#333333"/>
</svg>
