<svg width="26" height="26" viewBox="0 0 26 26" fill="none" xmlns="http://www.w3.org/2000/svg">
<path d="M25.9979 8.67589C25.9471 6.59675 25.1551 4.63142 23.7688 3.14367C22.3674 1.63994 20.504 0.774272 18.5235 0.712256C16.4466 0.639371 14.4717 1.44878 12.999 2.91606C11.5821 1.51079 9.69861 0.702026 7.7181 0.702026C7.70809 0.702026 7.69807 0.702026 7.68241 0.702026C5.67686 0.712256 3.78277 1.53701 2.33574 3.02987C0.837997 4.58538 -0.0154421 6.74252 0.000211625 8.9508C0.0152392 11.1022 0.812951 13.1244 2.24996 14.6544L12.0855 25.0654C12.3341 25.3301 12.664 25.4592 12.9997 25.4592C13.3146 25.4592 13.6346 25.3397 13.8832 25.0961C14.3859 24.598 14.401 23.779 13.9138 23.2605L4.07831 12.8597C3.09839 11.8125 2.54988 10.4175 2.53987 8.92971C2.52985 7.40552 3.11342 5.92225 4.14468 4.85455C5.10957 3.85398 6.37377 3.29903 7.69932 3.29392H7.71936C9.39493 3.29392 10.9741 4.17557 11.944 5.64797C12.1775 6.006 12.5739 6.21826 12.9953 6.21826C13.4167 6.21826 13.813 6.006 14.0466 5.64797C15.0572 4.11866 16.6971 3.23701 18.434 3.29392C19.7439 3.33547 20.983 3.91599 21.9223 4.92168C22.8771 5.94334 23.42 7.29619 23.4507 8.72703C23.4864 10.2563 22.9579 11.6981 21.968 12.792C21.968 12.7971 21.963 12.7971 21.963 12.8022L15.565 19.5888C15.0772 20.1022 15.0929 20.9263 15.6007 21.4192C16.1035 21.9173 16.9106 21.9013 17.3933 21.3828L23.812 14.57L23.8527 14.5284C25.2897 12.9524 26.0511 10.8733 26.0004 8.67461L25.9979 8.67589Z" fill="white"/>
</svg>
