<svg width="243" height="152" viewBox="0 0 243 152" fill="none" xmlns="http://www.w3.org/2000/svg">
<g clip-path="url(#clip0_377_168)">
<path d="M31.2173 35.4331L28.2336 55.8194L30.2905 55.4857L216.841 24.808L210.665 0.595947L31.2173 35.4331Z" stroke="#ED2232" stroke-width="2" stroke-linecap="round" stroke-linejoin="round"/>
<path d="M30.2905 55.4855L25.3577 86.193L225.792 64.7401L215.322 25.0581" stroke="#ED2232" stroke-width="2" stroke-linecap="round" stroke-linejoin="round"/>
<path d="M216.841 24.8079L215.962 27.4716" stroke="#ED2232" stroke-width="2" stroke-linecap="round" stroke-linejoin="round"/>
<path d="M225.792 64.7402L218.653 79.1852" stroke="#ED2232" stroke-width="2" stroke-linecap="round" stroke-linejoin="round"/>
<path d="M7.42017 87.3968L242.402 78.2913L227.926 100.996L201.498 99.4343L198.802 87.8259L115.769 90.6029L115.685 88.9581H108.438V90.8472L25.3577 93.6301L7.42017 87.3968Z" stroke="#ED2232" stroke-width="2" stroke-linecap="round" stroke-linejoin="round"/>
<path d="M201.498 99.4343L210.664 143.544H135.967" stroke="#ED2232" stroke-width="2" stroke-linecap="round" stroke-linejoin="round"/>
<path d="M48.1921 104.673L44.9275 139.224L109.431 138.091L108.576 102.694L48.1921 104.673Z" stroke="#ED2232" stroke-width="2" stroke-linecap="round" stroke-linejoin="round"/>
<path d="M116.14 102.706L117.288 137.668H181.606L177.486 100.996L116.14 102.706Z" stroke="#ED2232" stroke-width="2" stroke-linecap="round" stroke-linejoin="round"/>
<path d="M194.676 139.188H134.633" stroke="#ED2232" stroke-width="2" stroke-linecap="round" stroke-linejoin="round"/>
<path d="M202.563 141.423H135.428" stroke="#ED2232" stroke-width="2" stroke-linecap="round" stroke-linejoin="round"/>
<path d="M220.626 146.202H136.176V141.422H134.633V129.689L116.995 129.373L73.1433 136.065H70.4287V138.985H72.9818V147.59L117.419 141.428H136.176" stroke="#ED2232" stroke-width="2" stroke-linecap="round" stroke-linejoin="round"/>
<path d="M73.0955 138.729L106.077 133.67L116.941 132.019H134.633" stroke="#ED2232" stroke-width="2" stroke-linecap="round" stroke-linejoin="round"/>
<path d="M116.995 129.367L117.425 141.423" stroke="#ED2232" stroke-width="2" stroke-linecap="round" stroke-linejoin="round"/>
<path d="M106.035 131.042V143.002" stroke="#ED2232" stroke-width="2" stroke-linecap="round" stroke-linejoin="round"/>
<path d="M94.9854 132.728V144.593" stroke="#ED2232" stroke-width="2" stroke-linecap="round" stroke-linejoin="round"/>
<path d="M84.0134 134.397V145.773" stroke="#ED2232" stroke-width="2" stroke-linecap="round" stroke-linejoin="round"/>
<path d="M30.5835 93.4573L23.4443 147.578" stroke="#ED2232" stroke-width="2" stroke-linecap="round" stroke-linejoin="round"/>
<path d="M35.6897 93.2844L29.4414 140.088" stroke="#ED2232" stroke-width="2" stroke-linecap="round" stroke-linejoin="round"/>
<path d="M24.4309 140.088L117.347 139.229" stroke="#ED2232" stroke-width="2" stroke-linecap="round" stroke-linejoin="round"/>
<path d="M109.431 138.091L108.438 88.9583H115.685L117.347 139.23" stroke="#ED2232" stroke-width="2" stroke-linecap="round" stroke-linejoin="round"/>
<path d="M8.94484 87.9272L0.5979 151.404L4.00604 150.552L11.9045 88.9582L8.94484 87.9272Z" stroke="#ED2232" stroke-width="2" stroke-linecap="round" stroke-linejoin="round"/>
<path d="M227.927 100.996L238.797 144.182H236.345L225.792 100.865L227.927 100.996Z" stroke="#ED2232" stroke-width="2" stroke-linecap="round" stroke-linejoin="round"/>
<path d="M19.2112 147.578H220.626" stroke="#ED2232" stroke-width="2" stroke-linecap="round" stroke-linejoin="round"/>
<path d="M116.331 108.605L178.216 107.455" stroke="#ED2232" stroke-width="2" stroke-linecap="round" stroke-linejoin="round"/>
<path d="M116.409 111.102L151.949 110.53L178.508 110.107" stroke="#ED2232" stroke-width="2" stroke-linecap="round" stroke-linejoin="round"/>
<path d="M153.546 137.436L151.949 110.53L138.735 110.745L139.853 137.668" stroke="#ED2232" stroke-width="2" stroke-linecap="round" stroke-linejoin="round"/>
<path d="M170.921 44.9498C170.939 44.6697 170.951 44.3897 170.969 44.1096C171.256 40.5222 174.76 38.0908 178.233 39.092C178.616 39.2052 178.784 39.1158 178.975 38.8059C179.322 38.2458 179.71 37.7035 180.057 37.1851C180.822 37.7035 181.57 38.21 182.353 38.7404C181.97 39.3006 181.564 39.9024 181.145 40.4983C181.02 40.6771 181.008 40.8023 181.151 40.993C182.628 42.9297 182.885 45.0273 181.767 47.1964C180.673 49.3179 178.837 50.3667 176.464 50.2654C174.072 50.1641 172.38 48.9305 171.387 46.7435C171.322 46.5946 171.25 46.4515 171.178 46.3085C171.094 45.8556 171.005 45.4027 170.921 44.9498ZM176.093 41.5293C174.431 41.8511 173.313 43.5137 173.635 45.1644C173.964 46.827 175.627 47.9413 177.277 47.6136C178.951 47.2799 180.063 45.6351 179.728 43.9785C179.387 42.298 177.761 41.2015 176.093 41.5233V41.5293ZM177.199 62.4459C177.187 62.285 177.199 62.1241 177.169 61.9692C176.906 60.5628 176.631 59.1564 176.38 57.7441C176.314 57.3627 176.266 56.9635 176.29 56.5761C176.368 55.3009 177.402 54.2223 178.622 54.0912C179.991 53.9422 181.307 54.7467 181.6 56.0577C182 57.8335 182.287 59.6391 182.628 61.4328L185.42 60.9084C185.253 60.0622 185.11 59.2041 184.918 58.3639C184.631 57.1005 184.458 55.7836 183.985 54.5977C182.945 52.0055 180.081 50.7362 177.414 51.5228C174.76 52.3094 173.103 54.9672 173.564 57.7262C173.623 58.0719 173.671 58.4235 173.737 58.7691C174.012 60.1635 174.287 61.552 174.568 62.9465L177.205 62.4518L177.199 62.4459Z" fill="#ED2232"/>
<path d="M201.576 44.9438C201.648 44.914 201.642 44.8484 201.648 44.7948C201.684 44.5266 201.714 44.2644 201.75 43.9963C201.821 43.4063 201.899 42.8164 201.965 42.2264C202.031 41.6663 202.084 41.1061 202.138 40.5519C202.144 40.4685 202.168 40.4148 202.252 40.385C202.431 40.3135 202.605 40.2361 202.784 40.1646C202.814 40.1526 202.856 40.1467 202.88 40.1407C202.892 40.1526 202.898 40.1526 202.898 40.1526C202.898 40.1526 202.898 40.1586 202.898 40.1646C202.898 40.1705 202.898 40.1765 202.898 40.1884C202.898 40.2063 202.898 40.2241 202.898 40.242C202.658 42.2383 202.413 44.2406 202.168 46.2548C201.923 46.374 201.678 46.4991 201.421 46.6183C201.403 46.5826 201.391 46.5587 201.379 46.5349C201.014 45.5933 200.643 44.6518 200.279 43.7102C200.207 43.5196 200.135 43.3289 200.063 43.1441C200.045 43.1024 200.039 43.0607 199.974 43.0428C199.962 43.0726 199.95 43.1084 199.944 43.1382C199.908 43.4123 199.872 43.6924 199.842 43.9665C199.764 44.6399 199.681 45.3133 199.603 45.9926C199.555 46.4217 199.507 46.8567 199.46 47.2857C199.454 47.3632 199.418 47.4049 199.352 47.4347C199.143 47.5181 198.927 47.6075 198.7 47.6969C198.712 47.5718 198.724 47.4585 198.736 47.3513C198.844 46.3978 198.945 45.4444 199.053 44.4909C199.143 43.6805 199.238 42.87 199.328 42.0596C199.346 41.9285 199.358 41.7974 199.376 41.6663C199.376 41.6245 199.388 41.5888 199.436 41.5709C199.633 41.4875 199.83 41.4041 200.022 41.3206C200.045 41.3087 200.069 41.3147 200.105 41.3087C200.153 41.41 200.207 41.5113 200.249 41.6186C200.655 42.6793 201.062 43.74 201.469 44.8008C201.492 44.8604 201.498 44.9319 201.57 44.9617L201.576 44.9438ZM201.48 52.9588C201.66 52.7801 201.726 52.5536 201.756 52.3093C201.791 52.0233 201.821 51.7313 201.857 51.4452C201.917 50.9387 201.977 50.4381 202.037 49.9316C202.054 49.7707 202.084 49.6098 202.096 49.4489C202.108 49.2761 202.066 49.1212 201.953 48.99C201.893 48.9185 201.815 48.8887 201.726 48.8947C201.672 48.9007 201.618 48.9185 201.57 48.9364C201.331 49.0377 201.098 49.145 200.865 49.2463C200.219 49.5264 199.567 49.8065 198.915 50.0865C198.85 50.1163 198.814 50.1461 198.808 50.2236C198.79 50.3964 198.76 50.5752 198.742 50.748C198.652 51.6538 198.533 52.5536 198.419 53.4534C198.323 54.2281 198.24 55.0028 198.15 55.7775C198.132 55.9086 198.132 56.0457 198.126 56.1887C198.156 56.1827 198.174 56.1768 198.186 56.1708C198.377 56.0934 198.563 56.0099 198.754 55.9325C198.82 55.9086 198.838 55.8669 198.844 55.8014C198.909 55.2531 198.975 54.6989 199.041 54.1507C199.047 54.0792 199.083 54.0434 199.149 54.0136C199.46 53.8825 199.77 53.7454 200.081 53.6084C200.225 53.5488 200.362 53.4892 200.506 53.4296C200.847 53.8646 201.122 54.3294 201.457 54.7525C201.696 54.681 201.905 54.5738 202.114 54.4546C201.851 54.0553 201.6 53.668 201.343 53.2866C201.307 53.2389 201.265 53.1972 201.223 53.1495C201.301 53.0899 201.391 53.0304 201.469 52.9529L201.48 52.9588ZM199.178 52.9588C199.262 52.1901 199.346 51.4154 199.424 50.6467C199.436 50.5573 199.465 50.5156 199.549 50.4798C200.039 50.2713 200.524 50.0567 201.008 49.8482C201.05 49.8303 201.092 49.8124 201.134 49.8065C201.223 49.7945 201.259 49.8243 201.259 49.9137C201.259 50.0567 201.247 50.1998 201.235 50.3428C201.217 50.5335 201.176 50.7301 201.164 50.9208C201.146 51.1175 201.146 51.3201 201.14 51.5167C201.134 51.7253 201.11 51.9339 201.05 52.1365C200.996 52.3212 200.889 52.4464 200.715 52.5238C200.566 52.5894 200.41 52.649 200.255 52.7145C199.944 52.8456 199.633 52.9827 199.322 53.1138C199.286 53.1317 199.244 53.1376 199.19 53.1495C199.19 53.078 199.173 53.0184 199.178 52.9648V52.9588ZM197.606 42.3277C197.498 42.3694 197.397 42.4171 197.289 42.4588C197.193 42.4946 197.14 42.5661 197.098 42.6614C196.942 43.0428 196.775 43.4182 196.613 43.7996C196.225 44.7114 195.83 45.6172 195.447 46.5289C195.19 47.1368 194.945 47.7505 194.694 48.3643C194.563 48.6921 194.431 49.0258 194.299 49.3595C194.276 49.4191 194.246 49.4787 194.258 49.5621C194.311 49.5442 194.353 49.5264 194.395 49.5085C195.483 49.0556 196.572 48.6027 197.654 48.1498C197.923 48.0366 198.204 47.9353 198.461 47.7923C198.509 47.7625 198.533 47.7386 198.527 47.679C198.491 47.4288 198.461 47.1844 198.425 46.9341C198.353 46.4336 198.282 45.939 198.21 45.4384C198.144 45.0034 198.084 44.5743 198.019 44.1393C197.953 43.6983 197.881 43.2514 197.809 42.8104C197.785 42.6436 197.755 42.4767 197.726 42.2979C197.678 42.3098 197.642 42.3158 197.606 42.3277ZM197.72 47.3215C197.576 47.387 197.439 47.4466 197.307 47.5062C196.787 47.7327 196.267 47.9591 195.746 48.1796C195.699 48.2034 195.645 48.2154 195.591 48.2213C195.537 48.2273 195.519 48.1975 195.531 48.1439C195.531 48.126 195.543 48.1081 195.549 48.0902C196.075 46.8269 196.607 45.5695 197.134 44.3062C197.152 44.2585 197.175 44.2168 197.199 44.1751C197.211 44.1751 197.223 44.1751 197.235 44.1751C197.456 45.2119 197.558 46.2608 197.72 47.3155V47.3215ZM209.116 37.477C209.08 37.477 209.056 37.477 209.038 37.4829C208.913 37.5306 208.787 37.5842 208.661 37.6379C208.584 37.6677 208.536 37.7213 208.512 37.8047C208.488 37.8762 208.452 37.9477 208.422 38.0193C208.147 38.6569 207.872 39.2886 207.597 39.9262C207.25 40.7307 206.898 41.5411 206.551 42.3456C206.228 43.0965 205.917 43.8473 205.6 44.6041C205.582 44.6458 205.57 44.6816 205.54 44.7471C205.672 44.6935 205.78 44.6577 205.887 44.6101C206.114 44.5088 206.336 44.3955 206.563 44.2883C206.82 44.1751 207.071 44.0618 207.328 43.9486C208.004 43.6626 208.673 43.3765 209.349 43.0905C209.516 43.019 209.69 42.9534 209.869 42.8819C209.636 41.0763 209.403 39.2766 209.116 37.4829V37.477ZM209.056 42.4946C208.943 42.5363 208.841 42.572 208.739 42.6138C208.237 42.8343 207.735 43.0488 207.232 43.2693C207.149 43.305 207.071 43.3408 206.987 43.3765C206.969 43.3825 206.951 43.3884 206.933 43.3944C206.874 43.4063 206.85 43.3825 206.868 43.3229C206.88 43.2871 206.898 43.2514 206.916 43.2097C207.268 42.3754 207.621 41.5411 207.974 40.7128C208.153 40.2837 208.339 39.8547 208.524 39.4256C208.542 39.3839 208.566 39.3422 208.59 39.3064C208.602 39.3064 208.614 39.3064 208.626 39.3124C208.805 40.3672 208.984 41.4219 209.062 42.5005L209.056 42.4946ZM205.887 47.0831C205.821 47.107 205.797 47.1487 205.785 47.2202C205.684 48.0843 205.57 48.9483 205.475 49.8124C205.391 50.5633 205.265 51.3022 205.235 52.059C205.235 52.1782 205.2 52.2914 205.14 52.3927C205.098 52.4642 205.05 52.5357 204.966 52.5715C204.542 52.7443 204.117 52.9231 203.693 53.0959C203.621 53.1257 203.549 53.1495 203.472 53.1615C203.388 53.1793 203.346 53.1495 203.334 53.0601C203.334 53.0363 203.334 53.0065 203.334 52.9827C203.364 52.7324 203.394 52.4881 203.424 52.2378C203.501 51.5704 203.579 50.9029 203.663 50.2355C203.741 49.5621 203.824 48.8947 203.908 48.2213C203.92 48.12 203.932 48.0127 203.944 47.8995C203.908 47.9055 203.884 47.9114 203.866 47.9174C203.741 47.9651 203.609 48.0128 203.484 48.0664C203.382 48.1081 203.286 48.1677 203.191 48.2154C203.167 48.3226 203.137 48.4299 203.119 48.5372C203.071 48.9185 203.023 49.294 202.981 49.6754C202.904 50.3547 202.832 51.034 202.748 51.7134C202.676 52.3212 202.599 52.9231 202.527 53.5309C202.509 53.6978 202.527 53.8587 202.634 54.0017C202.694 54.0792 202.772 54.1268 202.868 54.1328C202.933 54.1328 203.011 54.1328 203.071 54.109C203.226 54.0553 203.382 54.0017 203.537 53.9361C204.063 53.7157 204.59 53.4952 205.116 53.2747C205.289 53.2032 205.457 53.1197 205.606 53.0006C205.648 52.9648 205.69 52.9171 205.714 52.8635C205.827 52.6311 205.887 52.3868 205.917 52.1305C205.959 51.773 205.995 51.4154 206.037 51.0579C206.096 50.5335 206.156 50.0091 206.216 49.4787C206.282 48.9066 206.348 48.3345 206.413 47.7565C206.443 47.4943 206.473 47.2321 206.503 46.9699C206.503 46.9222 206.509 46.8746 206.515 46.8209C206.294 46.9103 206.09 46.9937 205.887 47.0712V47.0831ZM207.591 51.2367C208.416 49.5323 209.241 47.834 210.067 46.1297C210.09 46.082 210.108 46.0343 210.114 45.9866C210.138 45.784 210.162 45.5874 210.18 45.3848C210.18 45.355 210.18 45.3192 210.18 45.2835C210.138 45.2954 210.108 45.3073 210.079 45.3192C209.134 45.7244 208.189 46.1297 207.244 46.5349C207.185 46.5587 207.161 46.5945 207.155 46.66C207.131 46.8686 207.101 47.0772 207.077 47.2857C207.077 47.3155 207.077 47.3394 207.077 47.3751C207.22 47.3155 207.358 47.2559 207.496 47.1963C207.98 46.9878 208.464 46.7852 208.948 46.5766C208.996 46.5587 209.044 46.5468 209.116 46.523C209.104 46.5766 209.098 46.6124 209.086 46.6362C209.056 46.7017 209.026 46.7613 208.99 46.8269C208.542 47.685 208.123 48.555 207.705 49.431C207.316 50.2415 206.922 51.0579 206.533 51.8683C206.521 51.8981 206.509 51.9279 206.503 51.9637C206.491 52.0769 206.473 52.1901 206.467 52.3033C206.461 52.4166 206.467 52.5298 206.461 52.6549C206.509 52.637 206.545 52.6251 206.581 52.6073C206.928 52.4583 207.28 52.3153 207.627 52.1663C208.207 51.922 208.787 51.6776 209.367 51.4333C209.421 51.4095 209.463 51.3856 209.469 51.3201C209.487 51.1115 209.516 50.9029 209.534 50.6944C209.534 50.6705 209.534 50.6467 209.534 50.6109C209.439 50.6467 209.349 50.6765 209.265 50.7122C208.817 50.897 208.368 51.0877 207.92 51.2724C207.806 51.3201 207.699 51.3737 207.549 51.3856C207.573 51.326 207.585 51.2843 207.603 51.2486L207.591 51.2367ZM190.24 51.2545C190.275 51.2426 190.311 51.2247 190.347 51.2069C190.479 51.1473 190.61 51.0877 190.742 51.0281C191.238 50.8135 191.728 50.605 192.225 50.3904C192.416 50.307 192.601 50.2176 192.763 50.0865C193.116 49.7945 193.349 49.437 193.391 48.9722C193.403 48.8172 193.427 48.6683 193.444 48.5133C193.576 47.4764 193.702 46.4455 193.833 45.4086C193.851 45.2596 193.863 45.1106 193.929 44.9676C194.072 44.6697 194.294 44.4492 194.61 44.33C195.137 44.1274 195.657 43.9069 196.177 43.6983C196.237 43.6745 196.267 43.6328 196.273 43.5732C196.303 43.4004 196.338 43.2335 196.356 43.0607C196.362 43.0011 196.386 42.9296 196.35 42.864C196.255 42.8998 196.165 42.9296 196.081 42.9654C195.471 43.2037 194.867 43.4421 194.264 43.6745C194.054 43.752 193.857 43.8413 193.672 43.9724C193.438 44.1393 193.289 44.3598 193.247 44.6458C193.193 44.9974 193.14 45.3431 193.104 45.6946C193.008 46.5289 192.954 47.3692 192.781 48.1975C192.727 48.4478 192.703 48.704 192.661 48.9603C192.613 49.2463 192.464 49.4608 192.225 49.6217C192.021 49.7588 191.812 49.8601 191.585 49.9495C191.208 50.1044 190.832 50.2593 190.449 50.4143C190.383 50.4381 190.353 50.4739 190.341 50.5454C190.317 50.7182 190.275 50.891 190.246 51.0638C190.234 51.1175 190.228 51.1711 190.222 51.2247C190.228 51.2307 190.234 51.2366 190.246 51.2426L190.24 51.2545ZM197.486 55.7537C197.05 55.9444 196.613 56.1351 196.177 56.3198C196.099 56.3496 196.016 56.3734 195.932 56.3854C195.818 56.4032 195.734 56.3436 195.717 56.2304C195.705 56.1649 195.711 56.0993 195.717 56.0338C195.758 55.6822 195.8 55.3246 195.842 54.973C195.908 54.401 195.974 53.8289 196.039 53.2508C196.069 52.9827 196.099 52.7205 196.129 52.4523C196.141 52.351 196.171 52.2557 196.231 52.1722C196.332 52.0233 196.452 51.8922 196.625 51.8147C197.074 51.618 197.522 51.4214 197.971 51.2307C198.048 51.2009 198.096 51.1532 198.102 51.0758C198.126 50.8553 198.144 50.6348 198.168 50.3964C198.12 50.4083 198.09 50.4083 198.066 50.4202C197.911 50.4798 197.749 50.5394 197.594 50.605C197.086 50.8135 196.584 51.0281 196.075 51.2367C195.944 51.2903 195.836 51.3678 195.746 51.4691C195.609 51.63 195.525 51.8147 195.495 52.0233C195.441 52.3927 195.388 52.7681 195.34 53.1376C195.25 53.8825 195.16 54.6334 195.077 55.3842C195.041 55.7001 195.017 56.0159 194.993 56.3258C194.981 56.4986 194.963 56.6714 194.951 56.8442C194.951 56.9276 194.951 57.017 194.963 57.0945C195.005 57.315 195.256 57.4461 195.465 57.3627C195.818 57.2196 196.177 57.0766 196.53 56.9276C196.829 56.8025 197.128 56.6595 197.433 56.5343C197.504 56.5045 197.534 56.4628 197.534 56.3854C197.534 56.3019 197.552 56.2185 197.564 56.1351C197.576 55.998 197.594 55.8609 197.606 55.7001C197.546 55.7179 197.51 55.7298 197.474 55.7477L197.486 55.7537ZM203.358 40.6353C203.717 40.4804 204.075 40.3254 204.434 40.1705C204.488 40.1467 204.542 40.1288 204.602 40.1109C204.649 40.099 204.667 40.1228 204.667 40.1705C204.667 40.1884 204.667 40.2063 204.667 40.2241C204.548 41.1299 204.422 42.0298 204.309 42.9356C204.207 43.7281 204.123 44.5207 204.028 45.3133C204.028 45.3371 204.028 45.3669 204.034 45.4146C204.279 45.3133 204.5 45.2179 204.733 45.1285C204.781 45.1106 204.793 45.0689 204.799 45.0213C204.835 44.7471 204.883 44.4671 204.913 44.1929C204.96 43.752 205.002 43.3169 205.05 42.876C205.152 42.0357 205.259 41.2014 205.361 40.3612C205.385 40.1526 205.415 39.9381 205.439 39.7236C205.475 39.7117 205.51 39.6997 205.546 39.6819C206.019 39.4852 206.491 39.2886 206.963 39.0859C207.011 39.0681 207.035 39.0383 207.041 38.9787C207.047 38.8774 207.065 38.7761 207.077 38.6748C207.089 38.5615 207.101 38.4543 207.119 38.3232C207.065 38.3411 207.029 38.353 206.993 38.3708C206.306 38.6569 205.618 38.9429 204.936 39.229C204.41 39.4495 203.884 39.6759 203.358 39.8964C203.292 39.9262 203.25 39.9619 203.25 40.0394C203.25 40.1467 203.226 40.2539 203.22 40.3552C203.214 40.4566 203.22 40.5579 203.214 40.677C203.28 40.6592 203.322 40.6472 203.364 40.6294L203.358 40.6353ZM213.947 46.2667C213.445 39.5388 207.543 34.4676 200.793 34.9682C194.042 35.4687 188.954 41.3504 189.456 48.0783C189.959 54.8062 195.86 59.8774 202.611 59.3768C209.361 58.8763 214.449 52.9946 213.947 46.2667ZM213.253 46.3204C213.726 52.6668 208.931 58.2148 202.563 58.6915C196.195 59.1623 190.628 54.3831 190.15 48.0366C189.678 41.6901 194.473 36.1421 200.841 35.6654C207.209 35.1946 212.775 39.9739 213.253 46.3204Z" fill="#ED2232"/>
<path d="M101.281 28.89C102.896 28.6695 104.51 28.449 106.125 28.2285C106.095 28.3894 106.065 28.5563 106.023 28.7172C105.592 30.5585 105.162 32.4059 104.737 34.2473C104.725 34.289 104.725 34.3247 104.719 34.3664C104.779 34.3188 104.809 34.2711 104.839 34.2234C105.126 33.7646 105.407 33.2998 105.694 32.8409C106.693 31.2319 107.697 29.623 108.696 28.014C108.726 27.9723 108.738 27.9186 108.755 27.871C113.611 27.2095 118.466 26.548 123.327 25.8806C123.327 25.8925 123.327 25.9045 123.327 25.9164C123.064 27.0426 122.801 28.1689 122.543 29.2952C122.531 29.3369 122.514 29.3846 122.502 29.4323L117.7 30.0878C117.377 31.5537 117.049 33.0078 116.72 34.4916L121.294 33.8659C120.989 35.2007 120.69 36.4998 120.391 37.8108L115.817 38.4365C115.434 40.1289 115.058 41.8094 114.669 43.5197C116.534 43.2635 118.364 43.0132 120.218 42.7629C120.104 43.3052 119.996 43.8296 119.877 44.3719C119.954 44.3421 120.002 44.3242 120.05 44.3063C121.246 43.8057 122.436 43.2992 123.632 42.7927C125.288 42.0955 126.944 41.3982 128.6 40.6951C129.641 40.2541 130.681 39.8131 131.721 39.3721C133.444 38.6451 135.166 37.9181 136.888 37.1911C137.988 36.7263 139.088 36.2615 140.188 35.7966C140.367 35.7192 140.559 35.6536 140.762 35.7072L140.792 35.9218C140.696 36.0529 140.571 36.1482 140.427 36.2317C139.494 36.7918 138.568 37.352 137.635 37.9181C135.65 39.1218 133.659 40.3256 131.674 41.5293C129.742 42.6973 127.811 43.8653 125.88 45.0333C124.493 45.8676 123.105 46.7019 121.724 47.5421C120.212 48.4539 118.699 49.3716 117.186 50.2833C115.5 51.3023 113.814 52.3214 112.122 53.3344C110.597 54.2521 109.072 55.1698 107.548 56.0935C105.67 57.2257 103.793 58.358 101.915 59.4843C100.026 60.6225 98.1364 61.7547 96.247 62.8869C94.8538 63.7212 93.4547 64.5555 92.0616 65.3898C90.3695 66.4028 88.6773 67.4099 86.9494 68.3515C85.61 69.0785 84.2468 69.7578 82.8118 70.2882C81.9747 70.5981 81.1256 70.8603 80.2527 71.0271C80.2288 71.0271 80.2108 71.051 80.1929 71.0629L78.5187 71.2893C78.3393 71.2893 78.1659 71.2893 77.9866 71.3012C77.2631 71.3191 76.5396 71.2714 75.8281 71.1403C74.7997 70.9556 73.831 70.6159 72.9043 70.1333C72.3482 69.8413 71.8101 69.5195 71.3317 69.1083C70.1538 68.1191 69.532 66.814 69.239 65.3421C69.1434 64.8594 69.1135 64.3648 69.1075 63.8702C69.0895 62.8869 69.1792 61.9215 69.3526 60.9562C69.6336 59.377 70.106 57.8514 70.668 56.3557C71.3915 54.4309 72.2705 52.5776 73.2391 50.766C74.142 49.0736 75.1106 47.4289 76.145 45.814C76.1629 45.7842 76.1928 45.7544 76.2167 45.7246C76.2227 45.7425 76.2287 45.7484 76.2287 45.7544C76.1988 45.8557 76.1689 45.9629 76.139 46.0643C75.7563 47.2144 75.4693 48.3883 75.2959 49.5921C75.1524 50.5813 75.1046 51.5705 75.2003 52.5657C75.266 53.2748 75.4095 53.9661 75.6487 54.6395C76.127 55.9862 76.9282 57.0827 78.1181 57.8872C79.302 58.6857 80.6353 59.0492 82.0524 59.1386C82.8058 59.1863 83.5592 59.1327 84.3066 59.0194C84.8985 58.9301 85.4785 58.787 86.0525 58.6142C86.6803 58.4235 87.2842 58.1554 87.8881 57.8991C89.939 57.035 91.9958 56.165 94.0467 55.3009C95.8763 54.5322 97.6999 53.7575 99.5296 52.9888C101.305 52.2379 103.087 51.4871 104.863 50.7362C106.884 49.8841 108.905 49.0319 110.92 48.1797C111.075 48.1142 111.231 48.0427 111.386 47.9771C111.386 47.9652 111.38 47.9593 111.374 47.9473C109.168 48.2453 106.968 48.5492 104.755 48.8531C104.731 48.7697 104.702 48.6982 104.69 48.6207C104.612 48.1619 104.54 47.703 104.462 47.2442C104.391 46.7972 104.313 46.3503 104.241 45.9034C104.163 45.4385 104.092 44.9737 104.014 44.5089C103.942 44.0679 103.87 43.627 103.799 43.186C103.721 42.7212 103.643 42.2564 103.571 41.7915C103.518 41.4459 103.464 41.0943 103.416 40.7487C103.416 40.7189 103.398 40.6951 103.392 40.6653C103.38 40.6653 103.374 40.6653 103.362 40.6653C102.693 43.5495 102.029 46.4278 101.359 49.306C101.084 49.3835 96.7134 49.9675 96.5818 49.9437C96.5878 49.896 96.5998 49.8483 96.6058 49.8066C97.1319 47.4647 97.6581 45.1227 98.1843 42.7808C98.6387 40.7487 99.0991 38.7107 99.5535 36.6786C100.026 34.5631 100.504 32.4476 100.983 30.3321C101.09 29.8554 101.192 29.3786 101.293 28.9019L101.281 28.89ZM113.593 27.7935C113.593 27.7935 113.569 27.7875 113.557 27.7816C113.443 27.9425 113.33 28.1034 113.222 28.2643C112.893 28.747 112.558 29.2297 112.229 29.7064C111.942 30.1176 111.655 30.5287 111.374 30.9399C111.034 31.4286 110.699 31.9232 110.358 32.4118C110.029 32.8886 109.7 33.3653 109.371 33.8361C109.03 34.3307 108.69 34.8253 108.349 35.3259C108.104 35.6775 107.865 36.035 107.619 36.3866C107.578 36.4462 107.566 36.4998 107.578 36.5713C107.613 36.7561 107.649 36.9468 107.679 37.1315C107.751 37.5427 107.817 37.9538 107.882 38.365C107.948 38.7643 108.014 39.1636 108.086 39.5628C108.158 39.98 108.223 40.3971 108.295 40.8142C108.361 41.2016 108.427 41.5889 108.492 41.9763C108.564 42.4053 108.636 42.8344 108.708 43.2635C108.773 43.6448 108.839 44.0262 108.899 44.4076C108.971 44.8426 109.042 45.2776 109.114 45.7127C109.162 46.0166 109.21 46.3265 109.258 46.6304C109.258 46.6542 109.276 46.678 109.282 46.7019H109.312C110.741 40.3971 112.176 34.0923 113.605 27.7875L113.593 27.7935ZM90.3814 30.3798C90.1961 31.1783 90.0107 31.9828 89.8313 32.7813C89.4247 34.5691 89.0182 36.3568 88.6056 38.1505C88.5099 38.5796 88.4083 39.0086 88.3126 39.4377C88.3007 39.4913 88.2827 39.5509 88.2468 39.6045C88.2289 39.4913 88.211 39.3781 88.199 39.2649C88.1572 38.7166 88.1213 38.1743 88.0794 37.6261C88.0376 37.0659 88.0017 36.5117 87.9598 35.9516C87.918 35.3974 87.8821 34.8491 87.8403 34.2949C87.7984 33.7407 87.7625 33.1925 87.7207 32.6383C87.6788 32.0841 87.6429 31.5358 87.6011 30.9816C87.6011 30.9042 87.6011 30.8267 87.5951 30.7492C85.897 30.9816 84.1989 31.2141 82.5008 31.4465C82.3693 32.0305 82.2378 32.6204 82.1002 33.2044C81.5322 35.6953 80.9642 38.1863 80.3962 40.6772C79.5651 44.3421 78.734 48.0069 77.8969 51.6718C77.8311 51.9519 77.7713 52.226 77.7056 52.524L82.4829 51.8744C82.4829 51.8744 82.4949 51.8565 82.5008 51.8506C83.1765 48.8651 83.8521 45.8795 84.5278 42.894C84.5278 42.8701 84.5397 42.8463 84.5457 42.8225C84.5457 42.8106 84.5577 42.7986 84.5637 42.7927L84.5756 42.7867C84.5756 42.7867 84.5816 42.7867 84.5936 42.7867C84.8028 45.6888 85.0061 48.5909 85.2154 51.499L90.3635 50.7958C90.3814 50.7362 90.3934 50.6826 90.4053 50.629C90.507 50.182 90.6086 49.7351 90.7103 49.2881C91.4876 45.8557 92.2708 42.4232 93.0481 38.9907C93.658 36.321 94.2679 33.6454 94.8718 30.9757C94.9674 30.5585 95.0571 30.1354 95.1468 29.7183C93.5564 29.9328 91.9659 30.1533 90.3754 30.3679L90.3814 30.3798ZM95.7268 29.6528C95.7268 29.7183 95.7268 29.7839 95.7089 29.8434C95.374 31.3213 95.0332 32.7932 94.6984 34.2711C94.1961 36.4819 93.6939 38.6987 93.1916 40.9096C92.498 43.9666 91.7985 47.0177 91.1049 50.0748C91.0571 50.2893 91.0092 50.5038 90.9614 50.7303L95.7447 50.0748C95.7806 49.9258 95.8105 49.7887 95.8404 49.6517C96.5998 46.3145 97.3531 42.9834 98.1125 39.6462C98.7403 36.8752 99.3741 34.1042 100.002 31.3332C100.181 30.5526 100.355 29.7779 100.528 28.9972C98.9257 29.2177 97.3232 29.4323 95.7208 29.6528H95.7268Z" fill="#ED2232"/>
<path d="M50.8648 31.8993C50.8648 31.8993 50.8289 31.8993 50.811 31.8993C50.7153 31.9052 50.6137 31.9171 50.518 31.9231C50.1652 31.9469 49.8304 31.9112 49.5195 31.798C49.2444 31.6967 49.0113 31.5358 48.8199 31.3212C48.6107 31.0888 48.4731 30.8087 48.3715 30.487C48.2878 30.2307 48.2459 29.9566 48.234 29.6646C48.234 29.5394 48.228 29.4143 48.222 29.2892C48.222 29.2772 48.222 29.2653 48.222 29.2474C48.234 29.2415 48.2519 29.2296 48.2639 29.2236C48.4731 29.1521 48.6824 29.0806 48.8917 29.0091C49.071 28.9495 49.2444 28.8839 49.4238 28.8243C49.6092 28.7588 49.7945 28.6992 49.9799 28.6337C49.9918 28.6337 49.9978 28.6337 50.0158 28.6217C50.0158 28.6337 50.0158 28.6515 50.0158 28.6635C50.0158 28.7886 50.0158 28.9137 50.0217 29.0389C50.0397 29.2236 50.0815 29.4024 50.1533 29.5573C50.2968 29.8612 50.5359 30.0162 50.8708 30.0281C51.0262 30.0341 51.1877 30.0162 51.3491 29.9745C51.4807 29.9387 51.6062 29.891 51.7378 29.8255C51.965 29.7063 52.1503 29.5275 52.2998 29.3011C52.3476 29.2296 52.3835 29.1581 52.4194 29.0866C52.5569 28.8124 52.6466 28.5383 52.6765 28.2582C52.7004 28.0854 52.7183 27.9066 52.7423 27.7338C52.7423 27.7159 52.7423 27.6981 52.7482 27.6802C52.7542 27.6742 52.7662 27.6683 52.7722 27.6683C53.3521 27.4657 53.9261 27.2631 54.5061 27.0664C54.5121 27.0664 54.5181 27.0664 54.53 27.0664C54.53 27.0902 54.53 27.1141 54.53 27.1439C54.5121 27.4359 54.4762 27.7279 54.4344 28.0199C54.3865 28.3297 54.3267 28.6396 54.2311 28.9495C54.1534 29.2177 54.0457 29.4799 53.9142 29.7361C53.7229 30.1115 53.4897 30.4572 53.1907 30.7611C52.8977 31.0531 52.5808 31.2855 52.234 31.4643C52.0367 31.5656 51.8394 31.649 51.6361 31.7086C51.5345 31.7384 51.4388 31.7682 51.3372 31.798C51.3192 31.798 51.3013 31.8158 51.2774 31.8218L50.8528 31.9052L50.8648 31.8993ZM62.0459 29.4918C62.0459 29.4918 62.0339 29.4799 62.0339 29.4739C62.0279 29.4501 62.022 29.4262 62.016 29.4024C61.8844 28.9078 61.7529 28.4132 61.6214 27.9245C61.424 27.1796 61.2267 26.4407 61.0354 25.7077C60.9696 25.4574 60.9039 25.2071 60.8381 24.9569C60.8321 24.933 60.8261 24.9092 60.8142 24.8854C60.7902 24.8854 60.7723 24.8854 60.7544 24.8973C60.2043 25.088 59.6542 25.2787 59.0922 25.4753C59.0981 25.5051 59.1041 25.5289 59.1101 25.5468C59.3134 26.3394 59.5167 27.132 59.72 27.9305C59.8814 28.5502 60.0428 29.1759 60.2043 29.8076C60.2103 29.8314 60.2222 29.8553 60.2282 29.8851C60.2581 29.8851 60.282 29.8791 60.3059 29.8732C60.862 29.7659 61.4181 29.6586 61.9681 29.5514C61.9921 29.5514 62.016 29.5394 62.0399 29.5335V29.5037L62.0459 29.4918ZM35.6597 34.861C35.6597 34.861 35.6837 34.8431 35.6956 34.8431C35.7554 34.8252 35.8092 34.8073 35.869 34.7895C36.1142 34.7239 36.3593 34.6286 36.6044 34.5153C37.1844 34.2412 37.7046 33.8479 38.1531 33.3175C38.3384 33.103 38.5118 32.8706 38.6553 32.6263C38.6673 32.6084 38.6852 32.5846 38.6792 32.5607C36.8496 33.1924 35.008 33.836 33.1485 34.4796C33.1365 34.4796 33.1246 34.4915 33.1066 34.5034C33.1186 34.5153 33.1246 34.5273 33.1365 34.5332C33.286 34.6524 33.4534 34.7537 33.6328 34.8193C34.0454 34.9742 34.4998 35.0099 34.9841 34.9563C35.0499 34.9504 35.1097 34.9444 35.1754 34.9384C35.1874 34.9384 35.1993 34.9384 35.2113 34.9384L35.6597 34.849V34.861ZM46.0755 20.1419C45.8901 20.4577 45.7048 20.7795 45.5194 21.1013C45.2324 21.5959 44.9514 22.0905 44.6644 22.5911C44.3654 23.1036 44.0724 23.622 43.7735 24.1405C43.5762 24.4861 43.3789 24.8317 43.1756 25.1774C43.1218 25.2727 43.0679 25.368 43.0082 25.4634C43.0022 25.4753 42.9962 25.4991 42.9723 25.4991C42.9723 25.4753 42.9723 25.4396 42.9723 25.4098C43.1576 23.8008 43.343 22.2097 43.5283 20.6365C43.5283 20.6067 43.5343 20.5828 43.5343 20.5531C43.5343 20.5411 43.5343 20.5233 43.5343 20.5113C43.4984 20.5113 43.4686 20.5233 43.4387 20.5233C42.9543 20.6067 42.47 20.6901 41.9857 20.7676C41.9259 20.7795 41.8721 20.7855 41.8123 20.7974C41.7944 20.7974 41.7824 20.8033 41.7585 20.8093C41.7465 20.845 41.7465 20.8808 41.7406 20.9106C41.322 24.3192 40.8915 27.8232 40.455 31.4166C40.455 31.4345 40.455 31.4523 40.4491 31.4702C40.4491 31.4881 40.4491 31.5 40.4491 31.5119C40.461 31.5119 40.467 31.5119 40.473 31.5119C40.6105 31.4643 40.748 31.4166 40.8915 31.3689C41.1068 31.2914 41.322 31.214 41.5433 31.1425C41.7944 31.0531 42.0455 30.9696 42.2966 30.8862C42.3086 30.8862 42.3265 30.8683 42.3385 30.8624C42.3385 30.8266 42.3504 30.7909 42.3504 30.7551C42.4282 30.1056 42.4999 29.456 42.5777 28.8065C42.5836 28.7409 42.6016 28.6873 42.6374 28.6277C42.9842 28.0556 43.3251 27.4895 43.6718 26.9234C43.6898 26.8876 43.7137 26.8519 43.7376 26.8221C43.7436 26.8102 43.7556 26.8042 43.7675 26.7863C43.7735 26.8102 43.7795 26.828 43.7854 26.8459C43.8871 27.2809 43.9947 27.7159 44.1023 28.151C44.1322 28.288 44.1681 28.4251 44.198 28.5621C44.3116 29.0508 44.4312 29.5394 44.5448 30.0341C44.5448 30.0579 44.5568 30.0817 44.5627 30.0996C44.5747 30.0996 44.5867 30.0996 44.5986 30.0936C44.7302 30.046 44.8677 30.0043 44.9992 29.9566C45.2444 29.8732 45.4895 29.7838 45.7406 29.7003C45.9499 29.6288 46.1652 29.5573 46.3744 29.4799C46.3924 29.4739 46.4103 29.462 46.4342 29.4501C46.4282 29.4203 46.4223 29.3905 46.4103 29.3607C46.3266 29.0568 46.2429 28.7588 46.1652 28.4549C45.9918 27.8113 45.8184 27.1677 45.645 26.5241C45.4955 25.9699 45.346 25.4157 45.2025 24.8675C45.1786 24.7721 45.1487 24.6768 45.1248 24.5814C45.1188 24.5516 45.1248 24.5278 45.1427 24.492C45.1726 24.4444 45.2085 24.3907 45.2384 24.3431C45.5254 23.8663 45.8064 23.3956 46.0934 22.9248C46.3864 22.4421 46.6794 21.9535 46.9664 21.4767C47.1876 21.1073 47.4088 20.7378 47.6301 20.3743C47.7377 20.1955 47.8513 20.0108 47.9589 19.832C47.9709 19.8141 47.9888 19.7903 47.9888 19.7664C47.929 19.7664 46.1891 20.0644 46.1233 20.0823C46.1114 20.1002 46.0994 20.118 46.0874 20.1419H46.0755ZM38.7689 32.0959C38.7689 32.0959 38.7928 32.0542 38.8048 32.0304C39.02 31.6311 39.1576 31.2199 39.2413 30.8087C39.307 30.4691 39.3369 30.1413 39.325 29.8255C39.313 29.4918 39.2592 29.1879 39.1576 28.9018C39.0499 28.5979 38.8825 28.3476 38.6852 28.1212C38.5596 27.9781 38.4221 27.847 38.2846 27.7219C38.0933 27.5551 37.9019 27.3882 37.6927 27.2392C37.4356 27.0485 37.1725 26.8638 36.9094 26.6791C36.7121 26.536 36.5088 26.3871 36.3115 26.2381C36.156 26.1189 36.0065 25.9938 35.869 25.8567C35.7255 25.7077 35.6119 25.5349 35.5461 25.3204C35.4684 25.0522 35.4624 24.7543 35.5521 24.4325C35.6657 24.0213 35.9228 23.6876 36.2876 23.4313C36.5506 23.2466 36.8197 23.1691 37.0888 23.1632C37.3758 23.1512 37.603 23.2466 37.7764 23.4373C37.8362 23.5028 37.89 23.5743 37.9318 23.6518C38.0215 23.8008 38.0813 23.9676 38.1291 24.1405C38.177 24.3133 38.2069 24.498 38.2308 24.6887C38.2308 24.7066 38.2368 24.7185 38.2427 24.7364C38.2667 24.7245 38.2846 24.7185 38.3025 24.7125C38.5537 24.5934 38.8048 24.4801 39.0559 24.3609C39.3668 24.2179 39.6777 24.069 39.9887 23.9259C40.0126 23.914 40.0305 23.9081 40.0544 23.8842C40.0544 23.8663 40.0544 23.8485 40.0544 23.8306C40.0425 23.7531 40.0305 23.6756 40.0186 23.5982C39.9528 23.2168 39.8511 22.8473 39.6897 22.5255C39.5342 22.2157 39.3369 21.9535 39.0679 21.7508C38.7151 21.4886 38.2906 21.3695 37.8003 21.3695C37.6149 21.3695 37.4296 21.3873 37.2382 21.4171C36.9453 21.4648 36.6523 21.5304 36.3593 21.6436C36.0424 21.7628 35.7315 21.9237 35.4325 22.1322C35.1455 22.3348 34.8824 22.5732 34.6373 22.8354C34.4161 23.0738 34.2307 23.3419 34.0753 23.622C33.872 23.9855 33.7464 24.355 33.6627 24.7304C33.6029 24.9926 33.579 25.2489 33.579 25.4932C33.579 25.8507 33.6448 26.1785 33.7584 26.4764C33.872 26.7684 34.0334 27.0247 34.2247 27.2511C34.3742 27.4299 34.5357 27.5908 34.721 27.7279C34.9243 27.8828 35.1276 28.0437 35.3369 28.1927C35.576 28.3715 35.8272 28.5443 36.0663 28.723C36.2876 28.8839 36.5028 29.0627 36.7121 29.2415C36.8556 29.3666 36.9811 29.4977 37.1007 29.6467C37.2024 29.7719 37.2801 29.9149 37.3399 30.0758C37.4356 30.3618 37.4356 30.6896 37.3399 31.0412C37.2801 31.2736 37.1844 31.5 37.0349 31.7145C36.8137 32.0304 36.5387 32.2687 36.2158 32.4118C35.9467 32.5309 35.6896 32.5846 35.4385 32.5786C35.0618 32.5786 34.7748 32.4296 34.5775 32.1555C34.5297 32.09 34.4938 32.0244 34.4579 31.9529C34.3862 31.8158 34.3383 31.6728 34.3025 31.5119C34.2367 31.2318 34.2008 30.9339 34.1948 30.63C34.1948 30.6121 34.1948 30.5942 34.1889 30.5704C33.573 30.8624 32.9571 31.1484 32.3413 31.4404C32.3234 31.4464 32.3114 31.4583 32.2935 31.4702C32.2935 31.494 32.2935 31.5179 32.2935 31.5417C32.2935 31.6132 32.2935 31.6847 32.2994 31.7563C32.3234 32.1615 32.3712 32.5607 32.4848 32.9242C32.5326 33.0851 32.5864 33.2341 32.6582 33.3831C32.7778 33.6274 32.9213 33.842 33.1186 34.0148C33.1365 34.0326 33.1604 34.0505 33.1784 34.0624C35.0678 33.4069 36.9333 32.7633 38.7749 32.1257C38.7809 32.1138 38.7928 32.1078 38.7928 32.1019L38.7689 32.0959ZM54.5779 26.5539C54.6855 25.088 54.7871 23.6339 54.8948 22.1978C54.9127 21.9892 54.9187 21.7806 54.9187 21.578C54.9187 21.3397 54.9127 21.1073 54.8948 20.8748C54.8649 20.4458 54.7513 20.0644 54.554 19.7307C54.3686 19.4149 54.1235 19.1705 53.8006 19.0156C53.4717 18.8607 53.101 18.807 52.7064 18.8189C52.5569 18.8189 52.4074 18.8368 52.252 18.8666C52.0726 18.8964 51.8932 18.9262 51.7138 18.9739C51.5703 19.0156 51.4328 19.0573 51.2893 19.1169C51.0143 19.2242 50.7512 19.3612 50.4941 19.546C50.1353 19.8022 49.8364 20.124 49.5853 20.4994C49.4657 20.6842 49.364 20.8689 49.2684 21.0655C49.1189 21.3814 49.0232 21.7091 48.9395 22.0369C48.8797 22.2752 48.8379 22.5136 48.808 22.752C48.7781 22.9784 48.7482 23.2049 48.7302 23.4313C48.5927 24.8675 48.4552 26.3155 48.3177 27.7815C48.2878 28.1152 48.2639 28.4489 48.2639 28.7767C48.2639 28.7946 48.2639 28.8124 48.2639 28.8303C48.2938 28.8243 48.3177 28.8184 48.3416 28.8124C48.4731 28.7648 48.6106 28.723 48.7422 28.6754C48.9515 28.6039 49.1607 28.5264 49.376 28.4549C49.5853 28.3834 49.7885 28.3119 49.9978 28.2404C50.0158 28.2344 50.0397 28.2284 50.0576 28.2046C50.0576 28.1748 50.0636 28.139 50.0636 28.1093C50.0636 28.0377 50.0696 27.9662 50.0756 27.8947C50.0875 27.7517 50.0995 27.6087 50.1114 27.4657C50.237 26.0533 50.3626 24.6529 50.4821 23.2645C50.512 22.9546 50.5359 22.6447 50.5838 22.3289C50.6017 22.2276 50.6137 22.1263 50.6376 22.025C50.6854 21.7926 50.7751 21.5721 50.9007 21.3516C50.9545 21.2503 51.0203 21.1549 51.098 21.0715C51.3192 20.8272 51.5763 20.6842 51.8514 20.6067C51.959 20.5769 52.0726 20.559 52.1802 20.5471C52.3177 20.5352 52.4493 20.5411 52.5748 20.5709C52.7901 20.6246 52.9456 20.7616 53.0472 20.9583C53.113 21.0775 53.1489 21.2145 53.1787 21.3575C53.2086 21.5244 53.2086 21.6972 53.2027 21.876C53.1967 22.0846 53.1847 22.2991 53.1668 22.5136C53.0532 24.0034 52.9336 25.5111 52.808 27.0366C52.808 27.0962 52.7961 27.1498 52.7961 27.2094C52.7961 27.2213 52.7961 27.2392 52.7961 27.2511C52.814 27.2511 52.826 27.2511 52.8439 27.2392C53.4179 27.0426 53.9919 26.84 54.5659 26.6433C54.5659 26.6075 54.5719 26.5778 54.5719 26.5539H54.5779ZM60.7663 23.8783C60.9337 23.7472 61.0952 23.6041 61.2447 23.4492C61.5376 23.1393 61.7589 22.7818 61.9323 22.3944C62.0937 22.025 62.1894 21.6495 62.2492 21.2681C62.2731 21.1073 62.291 20.9464 62.303 20.7855C62.3329 20.422 62.3269 20.0644 62.2791 19.7188C62.2372 19.397 62.1535 19.099 62.016 18.8249C61.8605 18.515 61.6512 18.2647 61.3762 18.08C61.2028 17.9668 61.0175 17.8834 60.8142 17.8297C60.5152 17.7523 60.1923 17.7403 59.8694 17.7642C59.714 17.7761 59.5526 17.7999 59.3911 17.8238C58.5481 17.9668 57.699 18.1098 56.85 18.2528C56.832 18.2528 56.8081 18.2588 56.7902 18.2647C56.7782 18.2647 56.7663 18.2707 56.7483 18.2767C56.7364 18.3184 56.7364 18.3541 56.7364 18.3899C56.5689 20.8629 56.4015 23.3836 56.2341 25.952C56.2341 25.9759 56.2341 26.0057 56.2341 26.0295C56.2341 26.0414 56.2341 26.0533 56.2341 26.0653C56.258 26.0653 56.276 26.0533 56.2939 26.0474C56.4374 25.9997 56.5809 25.9461 56.7244 25.8984C56.8619 25.8507 57.0054 25.8031 57.1429 25.7554C57.2805 25.7077 57.418 25.66 57.5555 25.6124C57.6871 25.5647 57.8186 25.523 57.9501 25.4753C57.9561 25.4753 57.9681 25.4634 57.98 25.4574V25.38C57.992 25.2548 57.998 25.1356 58.0099 25.0105C58.0099 24.9867 58.0099 24.9688 58.0219 24.939C58.0458 24.9271 58.0637 24.9211 58.0877 24.9211C58.1953 24.9032 58.3029 24.8794 58.4046 24.8615C58.5899 24.8258 58.7812 24.79 58.9666 24.7602C58.9905 24.7602 59.0204 24.7423 59.0443 24.7602C59.0742 24.8556 59.0981 24.9628 59.128 25.0641C59.6841 24.8734 60.2402 24.6827 60.7902 24.492C60.8022 24.492 60.8142 24.4861 60.8261 24.4801C60.8261 24.4801 60.8321 24.4742 60.8441 24.4623C60.8261 24.3729 60.8022 24.2894 60.7783 24.206C60.7544 24.1166 60.7305 24.0272 60.7065 23.9319C60.7364 23.9081 60.7544 23.8961 60.7723 23.8783H60.7663ZM58.1056 23.1751C58.1056 23.0082 58.3149 19.7128 58.3208 19.6532C58.3388 19.6294 58.3627 19.6294 58.3866 19.6294C58.4883 19.6115 58.5959 19.5936 58.6975 19.5758C58.8889 19.546 59.0862 19.5102 59.2775 19.4864C59.421 19.4685 59.5645 19.4566 59.702 19.4625C60.007 19.4744 60.2282 19.6175 60.3837 19.8618C60.4674 19.9989 60.5152 20.1538 60.5511 20.3206C60.581 20.4935 60.5929 20.6663 60.587 20.851C60.587 21.0596 60.569 21.2622 60.5272 21.4767C60.4913 21.6793 60.4375 21.8819 60.3478 22.0786C60.2581 22.2812 60.1325 22.46 59.9711 22.6149C59.8336 22.7401 59.6841 22.8354 59.5227 22.901C59.3612 22.9665 59.2058 23.0082 59.0443 23.0499C58.7513 23.1155 58.4643 23.1632 58.1714 23.2168C58.1474 23.2168 58.1235 23.2287 58.1056 23.2168C58.1056 23.2049 58.1056 23.1989 58.1056 23.187V23.1751ZM57.6811 30.2605C57.7708 28.8184 57.8545 27.3942 57.9382 25.9818C57.9382 25.964 57.9382 25.9401 57.9382 25.9222C57.9382 25.9103 57.9382 25.8924 57.9382 25.8746C57.6452 25.9699 57.3582 26.0712 57.0712 26.1725C56.7782 26.2738 56.4912 26.3751 56.1982 26.4764C56.1982 26.4943 56.1923 26.5003 56.1863 26.5122C56.0966 27.8888 56.0009 29.2832 55.9112 30.6836C55.9112 30.6896 55.9112 30.6955 55.9172 30.7074C55.9292 30.7074 55.9411 30.7074 55.9591 30.7074C56.1683 30.6776 57.6033 30.3916 57.6751 30.3678C57.6751 30.332 57.6751 30.2963 57.6811 30.2605ZM46.3445 29.897C45.7466 30.1056 45.1487 30.3141 44.5448 30.5227C44.5448 30.5227 44.5448 30.5227 44.5388 30.5227C44.5388 30.5227 44.5388 30.5227 44.5388 30.5287C44.5388 30.5346 44.5388 30.5406 44.5388 30.5465C44.5986 30.7968 44.6584 31.0471 44.7182 31.2974C44.8318 31.7801 44.9454 32.2568 45.065 32.7395C45.065 32.7633 45.065 32.7931 45.0949 32.811C45.1188 32.811 45.1547 32.7991 45.1846 32.7931C45.7825 32.674 46.3804 32.5607 46.9783 32.4416C46.9963 32.4416 47.0202 32.4356 47.0381 32.4296C47.0501 32.4296 47.068 32.4177 47.08 32.4118C47.08 32.3998 47.08 32.3879 47.08 32.382C46.8528 31.5417 46.6315 30.7015 46.4043 29.8672C46.3804 29.8732 46.3625 29.8791 46.3445 29.8851V29.897ZM40.2816 33.7526C40.8377 33.6453 41.3938 33.538 41.9439 33.4308C41.9618 33.4308 41.9857 33.4248 42.0037 33.4189C42.0156 33.4189 42.0335 33.4069 42.0515 33.401C42.0515 33.3652 42.0634 33.3295 42.0634 33.2997C42.1352 32.668 42.2069 32.0363 42.2847 31.4106C42.2847 31.3927 42.2847 31.3749 42.2847 31.357C42.2847 31.3451 42.2847 31.3272 42.2847 31.3093C42.0754 31.3808 41.8661 31.4523 41.6569 31.5238C41.4476 31.5954 41.2383 31.6669 41.029 31.7384C40.8198 31.8099 40.6105 31.8814 40.4012 31.9589C40.3833 32.0304 40.18 33.6632 40.18 33.7645C40.2159 33.7704 40.2458 33.7645 40.2816 33.7526Z" fill="#ED2232"/>
</g>
<defs>
<clipPath id="clip0_377_168">
<rect width="243" height="152" fill="white"/>
</clipPath>
</defs>
</svg>
