<svg width="15" height="15" viewBox="0 0 15 15" fill="none" xmlns="http://www.w3.org/2000/svg">
<path d="M7.34642 14.6941C5.89334 14.6939 4.47292 14.2629 3.26479 13.4556C2.05666 12.6482 1.11507 11.5007 0.559084 10.1582C0.00310025 8.81568 -0.142307 7.33846 0.141251 5.91331C0.424808 4.48817 1.12459 3.17911 2.15212 2.15168C3.17965 1.12424 4.48876 0.424563 5.91393 0.141128C7.3391 -0.142308 8.81631 0.00322585 10.1588 0.559325C11.5012 1.11542 12.6486 2.05711 13.4559 3.26532C14.2632 4.47352 14.6941 5.89397 14.6941 7.34704C14.6919 9.29503 13.917 11.1626 12.5395 12.54C11.162 13.9174 9.2944 14.692 7.34642 14.6941ZM7.34642 2.57144C6.40192 2.57156 5.47866 2.85175 4.6934 3.37658C3.90814 3.9014 3.29613 4.64729 2.93477 5.51993C2.57341 6.39257 2.47893 7.35276 2.66327 8.2791C2.8476 9.20543 3.30249 10.0563 3.97039 10.7241C4.6383 11.3919 5.48923 11.8467 6.41559 12.0309C7.34195 12.2151 8.30213 12.1205 9.17472 11.7591C10.0473 11.3976 10.7931 10.7855 11.3178 10.0002C11.8426 9.21483 12.1226 8.29154 12.1226 7.34704C12.1213 6.08077 11.6177 4.86673 10.7222 3.9714C9.82679 3.07606 8.61269 2.57257 7.34642 2.57144Z" fill="black"/>
</svg>
